<?xml version="1.0" encoding="utf-8"?>
<!-- Generator: Adobe Illustrator 16.0.0, SVG Export Plug-In . SVG Version: 6.00 Build 0)  -->
<!DOCTYPE svg PUBLIC "-//W3C//DTD SVG 1.1//EN" "http://www.w3.org/Graphics/SVG/1.1/DTD/svg11.dtd">
<svg version="1.1" id="Layer_1" xmlns="http://www.w3.org/2000/svg" xmlns:xlink="http://www.w3.org/1999/xlink" x="0px" y="0px"
	 width="60px" height="60px" viewBox="0 0 60 60" enable-background="new 0 0 60 60" xml:space="preserve">
<g id="XMLID_1_">
	<g>
		<path fill="#FFFFFF" d="M34.473,30.013h-4.429v-4.432C32.489,25.581,34.473,27.567,34.473,30.013z"/>
		<path fill="#FFFFFF" d="M30.044,30.013h4.429c0,2.445-1.983,4.433-4.429,4.433c-1.248,0-2.379-0.518-3.18-1.35L30.044,30.013z"/>
		<path fill="#FFFFFF" d="M30.044,25.581v4.432l-3.18,3.083c-0.774-0.797-1.252-1.886-1.252-3.083
			C25.612,27.567,27.595,25.581,30.044,25.581z"/>
	</g>
	<g>
		<polyline fill="none" stroke="#FFFFFF" stroke-width="0.7776" stroke-miterlimit="10" points="30.044,3.15 30.044,25.581 
			30.044,30.013 		"/>
		<polyline fill="none" stroke="#FFFFFF" stroke-width="0.7776" stroke-miterlimit="10" points="30.044,30.013 26.864,33.096 
			2.311,56.879 		"/>
		<polyline fill="none" stroke="#FFFFFF" stroke-width="0.7776" stroke-miterlimit="10" points="30.044,30.013 34.473,30.013 
			56.626,30.013 56.906,30.013 		"/>
		<polyline fill="none" stroke="#FFFFFF" stroke-width="0.7776" stroke-miterlimit="10" points="30.044,3.15 2.311,56.879 
			2.288,56.926 2.229,57.034 		"/>
		
			<line fill="none" stroke="#FFFFFF" stroke-width="0.7776" stroke-miterlimit="10" x1="30.125" y1="2.991" x2="30.044" y2="3.146"/>
		<polyline fill="none" stroke="#FFFFFF" stroke-width="0.7776" stroke-miterlimit="10" points="2.031,57.05 2.288,56.926 
			56.626,30.184 		"/>
		<polyline fill="none" stroke="#FFFFFF" stroke-width="0.7776" stroke-miterlimit="10" points="56.906,30.013 30.044,3.15 
			30.044,3.146 		"/>
	</g>
</g>
</svg>
